<?xml version="1.0" encoding="utf-8"?>
<!-- Generator: Adobe Illustrator 28.0.0, SVG Export Plug-In . SVG Version: 6.00 Build 0)  -->
<svg version="1.1" xmlns="http://www.w3.org/2000/svg" xmlns:xlink="http://www.w3.org/1999/xlink" x="0px" y="0px"
	 viewBox="0 0 283.46 283.46" style="enable-background:new 0 0 283.46 283.46;" xml:space="preserve">
<style type="text/css">
	.st0{display:none;}
	.st1{display:inline;fill:#93BFCF;}
	.st2{display:inline;fill:#488DA9;}
	.st3{display:inline;}
	.st4{fill:#488DA9;}
	.st5{font-family:'Conto-Medium';}
	.st6{font-size:43.338px;}
	.st7{fill:#333333;}
	.st8{fill:#93BFCF;}
	.st9{fill:#FFFFFF;}
</style>
<g id="Layer_1" class="st0">
	<polygon class="st1" points="75.82,28.67 126.73,28.67 77.7,159.68 138.25,159.68 172.54,254.8 103.95,254.8 73.14,167.99 
		23.58,167.99 	"/>
	<polygon class="st2" points="143.34,28.67 194.25,28.67 154.06,135.03 213.81,135.03 258.55,254.8 189.96,254.8 149.5,143.88 
		99.4,143.88 	"/>
	<polygon class="st2" points="210.59,28.67 259.89,28.67 226.67,120.3 177.37,120.3 	"/>
</g>
<g id="Layer_2" class="st0">
	<text transform="matrix(1 0 0 1 100.8304 141.938)" class="st3"><tspan x="0" y="0" class="st4 st5 st6">Re</tspan><tspan x="47.15" y="0" class="st7 st5 st6">View</tspan></text>
	<g class="st3">
		<path class="st8" d="M45.89,104.52l-11.54,30.83c-0.62-2.33-0.95-4.78-0.95-7.32C33.4,118.24,38.35,109.62,45.89,104.52z"/>
		<path class="st4" d="M90.12,128.03c0,11.24-6.53,20.95-16.01,25.54l-8.96-24.58h-21.6l10.81-28.34c2.36-0.64,4.84-0.98,7.41-0.98
			c4.95,0,9.61,1.27,13.66,3.5l-8.32,22.01h22.87C90.07,126.12,90.12,127.07,90.12,128.03z"/>
		<path class="st4" d="M88.59,118.82H77.16l4.12-11.37C84.55,110.56,87.09,114.45,88.59,118.82z"/>
		<path class="st8" d="M60.29,135.8l7.21,20.01c-1.86,0.38-3.78,0.58-5.74,0.58c-12.97,0-23.91-8.7-27.29-20.59H60.29z"/>
	</g>
</g>
<g id="Layer_2_copy">
	<path class="st4" d="M114.18,113.77c1.85,0,3.43,0.14,4.75,0.43s2.38,0.75,3.19,1.39c0.81,0.64,1.4,1.45,1.78,2.45
		c0.38,1,0.56,2.19,0.56,3.58c0,4.3-1.89,6.83-5.68,7.58l6.59,12.74h-5.33l-5.89-12.09h-4.94v12.09h-4.9v-28.17H114.18z
		 M117.82,126.16c1.07-0.95,1.6-2.43,1.6-4.42c0-1.07-0.12-1.96-0.37-2.67c-0.25-0.71-0.65-1.28-1.21-1.71
		c-0.56-0.43-1.29-0.74-2.17-0.91c-0.88-0.17-1.94-0.26-3.19-0.26h-3.29v11.4h3.25C114.96,127.59,116.75,127.12,117.82,126.16z"/>
	<path class="st4" d="M132.99,135.55c0.29,1.03,0.7,1.86,1.23,2.49c0.53,0.64,1.2,1.08,1.99,1.34c0.79,0.26,1.73,0.39,2.79,0.39
		c1.18,0,2.22-0.11,3.12-0.33c0.9-0.22,1.76-0.48,2.6-0.8l0.91,2.3c-0.92,0.49-2.02,0.87-3.29,1.15c-1.27,0.27-2.64,0.41-4.12,0.41
		c-1.91,0-3.53-0.22-4.88-0.65c-1.34-0.43-2.43-1.11-3.27-2.04c-0.84-0.92-1.45-2.12-1.84-3.58c-0.39-1.46-0.59-3.21-0.59-5.27
		c0-3.99,0.77-6.9,2.32-8.75c1.55-1.85,3.98-2.77,7.3-2.77c1.68,0,3.11,0.21,4.29,0.63s2.15,1.1,2.9,2.06
		c0.75,0.95,1.29,2.22,1.62,3.79c0.33,1.57,0.5,3.5,0.5,5.79h-14.13C132.52,133.24,132.7,134.52,132.99,135.55z M133.79,123.33
		c-0.77,1.2-1.21,3.21-1.32,6.05h9.32c0-2.77-0.34-4.77-1.02-6c-0.68-1.23-1.84-1.84-3.49-1.84
		C135.72,121.53,134.55,122.13,133.79,123.33z"/>
	<path class="st9" d="M152.36,113.77l6.93,25.39l6.93-25.39h4.07l-8.06,28.17h-6.93l-7.97-28.17H152.36z"/>
	<rect x="173.64" y="120.05" class="st9" width="4.72" height="21.88"/>
	<path class="st9" d="M188.07,135.55c0.29,1.03,0.7,1.86,1.24,2.49c0.53,0.64,1.2,1.08,1.99,1.34c0.79,0.26,1.73,0.39,2.8,0.39
		c1.18,0,2.22-0.11,3.12-0.33c0.9-0.22,1.76-0.48,2.6-0.8l0.91,2.3c-0.92,0.49-2.02,0.87-3.29,1.15c-1.27,0.27-2.64,0.41-4.12,0.41
		c-1.91,0-3.53-0.22-4.88-0.65c-1.34-0.43-2.43-1.11-3.27-2.04c-0.84-0.92-1.45-2.12-1.84-3.58c-0.39-1.46-0.58-3.21-0.58-5.27
		c0-3.99,0.77-6.9,2.32-8.75c1.55-1.85,3.98-2.77,7.3-2.77c1.68,0,3.11,0.21,4.29,0.63s2.15,1.1,2.9,2.06
		c0.75,0.95,1.29,2.22,1.62,3.79c0.33,1.57,0.5,3.5,0.5,5.79h-14.13C187.61,133.24,187.78,134.52,188.07,135.55z M188.87,123.33
		c-0.77,1.2-1.21,3.21-1.32,6.05h9.32c0-2.77-0.34-4.77-1.02-6c-0.68-1.23-1.84-1.84-3.49-1.84
		C190.8,121.53,189.64,122.13,188.87,123.33z"/>
	<path class="st9" d="M213.38,139.21l5.07-19.15h5.89l5.07,19.15l5.29-19.15h3.6l-6.46,21.88h-5.85l-5.16-18.89l-5.16,18.89h-5.85
		l-6.5-21.88h4.77L213.38,139.21z"/>
	<g>
		<path class="st8" d="M45.89,104.52l-11.54,30.83c-0.62-2.33-0.95-4.78-0.95-7.32C33.4,118.24,38.35,109.62,45.89,104.52z"/>
		<path class="st4" d="M90.12,128.03c0,11.24-6.53,20.95-16.01,25.54l-8.96-24.58h-21.6l10.81-28.34c2.36-0.64,4.84-0.98,7.41-0.98
			c4.95,0,9.61,1.27,13.66,3.5l-8.32,22.01h22.87C90.07,126.12,90.12,127.07,90.12,128.03z"/>
		<path class="st4" d="M88.59,118.82H77.16l4.12-11.37C84.55,110.56,87.09,114.45,88.59,118.82z"/>
		<path class="st8" d="M60.29,135.8l7.21,20.01c-1.86,0.38-3.78,0.58-5.74,0.58c-12.97,0-23.91-8.7-27.29-20.59H60.29z"/>
	</g>
</g>
</svg>

