<?xml version="1.0" encoding="utf-8"?>
<!-- Generator: Adobe Illustrator 28.0.0, SVG Export Plug-In . SVG Version: 6.00 Build 0)  -->
<svg version="1.1" id="Layer_2_copy" xmlns="http://www.w3.org/2000/svg" xmlns:xlink="http://www.w3.org/1999/xlink" x="0px"
	 y="0px" viewBox="60 60 180 180" style="enable-background:new 0 0 283.46 283.46;" xml:space="preserve">
<style type="text/css">
	.st0{fill:#93BFCF;}
	.st1{fill:#488DA9;}
</style>
<g>
	<path class="st0" d="M110.7,87.38l-23.87,63.8c-1.29-4.83-1.98-9.9-1.98-15.14C84.85,115.78,95.1,97.93,110.7,87.38z"/>
	<path class="st1" d="M202.22,136.03c0,23.25-13.52,43.34-33.14,52.84l-18.55-50.87h-44.7l22.36-58.64
		c4.89-1.32,10.03-2.03,15.34-2.03c10.25,0,19.88,2.63,28.27,7.25l-17.21,45.54h47.33C202.13,132.07,202.22,134.04,202.22,136.03z"
		/>
	<path class="st1" d="M199.05,116.98H175.4l8.53-23.53C190.71,99.88,195.96,107.93,199.05,116.98z"/>
	<path class="st0" d="M140.5,152.11l14.93,41.4c-3.85,0.79-7.82,1.2-11.88,1.2c-26.84,0-49.47-18.01-56.46-42.6H140.5z"/>
</g>
</svg>

